<svg xmlns="http://www.w3.org/2000/svg" viewBox="0 0 4313 960" width="690" height="154" role="img" aria-label="Firenze"><title>Firenze</title><g transform="translate(111 850) scale(1 -1)"><path fill="#14161F" d="M562 524V521Q562 512 556 504H694Q687 494 673 494H387V489H311V474H277V454H311V439H302V424H298V420H564Q574 420 581 414H583Q588 410 591 404H585Q588 400 588 393V384H584V379H610V359H587V349H593V334H596V329H605V314H590V309H539V289H527V274H603V254H575V242Q575 237 574 234H572Q568 223 560 219H540Q535 215 526 215H260V204H290V194H335V179H241V169H327V154H262V149H312V129H284V109H297V104H291V84H307V79H300V74H286V64H300V54H286V39H333V34H364V27Q364 26 363.5 25.5Q363 25 363 24H447Q447 21 446 19H306Q304 10 295 4H367Q362 0 353 0H162Q153 0 148 4H75Q68 9 64 19H203Q203 22 202 24H119V34H88V39H41V54H55V64H41V74H55V79H62V84H46V104H52V109H39V129H67V149H17V154H82V169H-4V179H90V194H45V204H15V219H35V234H37V254H65V274H-11V289H1V309H52V314H67V329H58V334H55V349H49V359H72V379H46V384H50V404H55V414H53V424H57V439H66V454H32V474H66V489H142V504H4V524H156V539H9V549H13V559H98V579H61V599H78V619H52V639H55V654H46V669H51V673Q51 677 52 679H12Q13 684 15.5 687.5Q18 691 21 694H13Q21 700 30 700H534Q544 700 551 694H559Q566 689 569 679H608Q609 677 609 673V669H604V654H613V639H610V619H636V599H619V579H656V559H571V549H567V539H714V524Z M686 604V624H685V639H694V644H700V664H695V679H696V699H700V714H698V723Q698 731 700 734H710L713 739H705Q713 750 727 750H896Q910 750 918 739H926L929 734H918Q921 730 921 723V714H923V699H919V679H918V664H923V644H917V639H908V624H909V604H916V602Q916 593 909 584H897Q890 575 877 575H708Q695 575 687 584H699Q693 592 693 602V604ZM892 394H986V374H952V364H914V344H943V339H924V329H927V319H932V304H882V289H915V274H909V264H926V249H930V234H924V219H929V209H924V189H922V174H918V159H922V149H924V129H920V119H925V109H924V94H928V79H931V74H924V54H910V34H920V27Q920 22 919 19H912Q909 9 901 4H921Q916 0 906 0H727Q718 0 713 4H693Q684 9 681 19H688Q687 22 687 27V34H677V54H691V74H698V79H695V94H691V109H692V119H687V129H691V149H689V159H685V174H689V189H691V209H696V219H691V234H697V249H693V264H676V274H682V289H649V304H699V319H694V329H691V339H710V344H681V364H719V374H753V394H659V404H742V424H712V439H730V459H698V464H691V474H685V489H692V493Q692 504 697 509H698Q706 520 720 520H899Q913 520 921 509H919Q925 503 925 493V489H918V474H924V464H931V459H963V439H945V424H975V404H892Z M1463 444H1501V424H1499V404H1464V389H1473V369H1465V349H1447V344H1384V337Q1384 335 1383.5 333.0Q1383 331 1382 329H1405Q1400 310 1379 310H1250Q1246 310 1242.5 310.0Q1239 310 1236 309H1276Q1271 308 1267.0 307.0Q1263 306 1258 304H1291Q1288 303 1282 299H1301L1295 294H1300Q1294 288 1291 279H1261Q1259 275 1259 274H1249Q1249 273 1248.5 272.0Q1248 271 1248 269H1260Q1259 267 1259.0 264.5Q1259 262 1258 259H1264V244H1250V234H1264V219H1279V199H1257V194H1241V189H1301V174H1271V164H1281V154H1258V134H1245V129H1232V114H1266V99H1248V84H1266V79H1264V69H1242V59H1258V39H1262V24H1258Q1256 10 1245 4H1236Q1231 0 1222 0H1032Q1023 0 1018 4H1027Q1016 10 1014 24H1018V39H1014V59H998V69H1020V79H1022V84H1004V99H1022V114H988V129H1001V134H1014V154H1037V164H1027V174H1057V189H997V194H1013V199H1035V219H1020V234H1006V244H1020V259H1014V269H1002V274H1012V279H1042V294H1037V299H1019V304H986V309H946V329H924V344H987V349H1005V369H1013V389H1004V404H1039V424H1041V444H1003V459H1035V479H1004V484H1014V493Q1014 498 1016 504H1015Q1022 520 1040 520H1215Q1232 520 1239 504H1241Q1243 498 1243 493V484H1233V479H1264V476L1268 479H1270Q1272 481 1274.0 482.0Q1276 483 1277 484H1279Q1299 497 1318 504H1320Q1340 512 1360.0 516.0Q1380 520 1402 520H1450Q1468 520 1475 504H1473Q1475 498 1475 493V484H1474V479H1472V459H1463Z M2041 274V264H2168V254H2091V244H2055V234H2086V228Q2086 222 2085 219H2099Q2092 201 2073 201H1775V199H1815V196Q1815 192 1815.0 187.5Q1815 183 1816 179H1762Q1762 176 1762.5 173.5Q1763 171 1763 169H1757Q1757 165 1759 159H1763Q1768 145 1779 139H1752Q1759 135 1771 135Q1779 135 1784 139H1831Q1835 141 1838.5 145.0Q1842 149 1847 153L1853 159H1834Q1843 167 1861 167H2050Q2062 167 2068 159H2086Q2091 152 2091 145Q2090 143 2090 139H2043Q2041 129 2037 119H1988Q1985 114 1983 109H2107Q2105 104 2101.5 99.0Q2098 94 2094 89H2064Q2060 83 2056 79H2063Q2062 78 2061.0 77.0Q2060 76 2059 74H2003L1998 69H2015Q2014 68 2012.5 67.0Q2011 66 2010 64H2041Q2034 57 2023 49H2008Q2007 48 2005.0 47.0Q2003 46 2001 44H1990Q1974 33 1955 24H1942Q1930 18 1916.5 13.0Q1903 8 1888 4H1872Q1861 1 1849.0 -1.5Q1837 -4 1823 -6H1865Q1851 -8 1836.0 -9.0Q1821 -10 1804 -10Q1788 -10 1772.0 -9.0Q1756 -8 1741 -6H1699Q1686 -4 1674.0 -1.5Q1662 1 1650 4H1666Q1639 11 1615 24H1628Q1610 34 1597 44H1608Q1606 46 1604.5 47.0Q1603 48 1601 49H1616Q1612 53 1608.0 56.5Q1604 60 1600 64H1568L1563 69H1546Q1545 71 1544.0 72.0Q1543 73 1542 74H1597Q1596 76 1593 79H1586Q1584 81 1582.0 84.0Q1580 87 1578 89H1608Q1605 94 1602.0 99.0Q1599 104 1596 109H1471Q1468 114 1466 119H1515L1506 139H1533Q1531 144 1529.5 149.0Q1528 154 1526 159H1523L1520 169H1527L1524 179H1578Q1577 184 1576.0 189.0Q1575 194 1574 199H1534L1532 219H1518Q1518 223 1517.5 226.5Q1517 230 1517 234H1486V244H1521V254H1598V264H1471V266Q1471 271 1472 274H1645Q1645 278 1645.5 281.5Q1646 285 1646 289H1487Q1487 291 1487.5 292.0Q1488 293 1488 294H1554Q1554 297 1555 299H1629V304H1488Q1489 309 1490.0 314.0Q1491 319 1492 324H1530Q1530 328 1532 334H1499Q1499 336 1499.5 337.0Q1500 338 1500 339H1524Q1524 341 1524.5 342.0Q1525 343 1525 344H1500L1502 349H1526L1529 359H1548L1554 374H1536Q1538 379 1540.0 384.5Q1542 390 1545 394H1542L1544 399H1519Q1521 403 1521 404H1498L1504 414H1553Q1554 416 1557 419H1575Q1579 424 1582.5 429.5Q1586 435 1590 439H1572Q1575 443 1578.5 446.5Q1582 450 1586 454H1625L1635 464H1576Q1589 475 1602 484H1657L1665 489H1647Q1655 494 1666 499H1705Q1732 512 1761 519H1705Q1727 524 1751.0 527.0Q1775 530 1801 530Q1827 530 1850.0 527.0Q1873 524 1894 519H1949Q1964 515 1977.5 510.0Q1991 505 2004 499H1965Q1970 497 1974.5 494.5Q1979 492 1983 489H2001Q2003 488 2005.0 487.0Q2007 486 2009 484H1954Q1967 475 1980 464H2040L2050 454H2011Q2015 450 2018.5 446.5Q2022 443 2025 439H2043Q2047 435 2050.5 429.5Q2054 424 2058 419H2039Q2040 417 2043 414H1993L1999 404H2022L2025 399H2051Q2051 398 2053 394H2056L2065 374L2071 359H2072L2075 349H2063L2065 344H2074L2076 339H2092Q2092 338 2092.5 337.0Q2093 336 2093 334H2085L2088 324H2050L2053 304H2194V299H2120Q2120 298 2120.5 297.0Q2121 296 2121 294H2054Q2055 292 2055 289H2214Q2214 285 2214.0 281.5Q2214 278 2215 274ZM1737 339V334H1769V326H1849V334H1856V339H1840V344H1830Q1830 347 1829 349H1841Q1841 353 1839 359H1838Q1837 368 1832 374Q1822 390 1801 390Q1781 390 1771 374H1789Q1785 368 1783 359H1763Q1763 357 1762.5 354.5Q1762 352 1761 349H1737Q1737 346 1736 344H1761V339Z M2740 74H2889V54H2804V39H2790V29H2728V24H2759Q2757 10 2747 4H2725Q2720 0 2710 0H2519Q2510 0 2505 4H2527Q2517 10 2515 24H2483V29H2545V39H2559V54H2644V74H2495V94H2532V99H2499V109H2500V119H2484V139H2497V159H2456V179H2466V199H2512V219H2501V229H2497V234H2493V249H2499V254H2504V264H2503V274H2500V284H2458V294H2469V296Q2469 300 2468.5 303.0Q2468 306 2468 309H2488Q2487 314 2486.0 317.5Q2485 321 2484 324H2502Q2496 337 2485 344H2453Q2442 351 2424 351Q2406 351 2396 344H2420Q2415 340 2410.5 335.5Q2406 331 2404 324H2374Q2372 320 2370 309H2375Q2374 305 2374 296V294H2367V284H2400V274H2402V264H2399V254H2392V249H2385V234H2396V229H2403V219H2399V199H2425V179H2397V159H2402V139H2391V119H2403V109H2402V104H2405V99H2460V94H2483V74H2421V54H2423V39H2385V29H2428V24H2439Q2437 10 2426 4H2380Q2375 0 2366 0H2176Q2167 0 2162 4H2208Q2197 10 2195 24H2184V29H2141V39H2179V54H2177V74H2239V94H2216V99H2161V104H2158V109H2159V119H2147V139H2158V159H2153V179H2181V199H2155V219H2159V229H2152V234H2141V249H2148V254H2155V264H2158V274H2156V284H2123V294H2130V309H2125V324H2155V344H2130V359H2152V369H2158V384H2154V399H2155V424H2160V434H2159V449H2172V454H2164V469H2176V474H2136V484H2165V499H2219Q2221 505 2223 509H2191Q2199 520 2213 520H2388Q2402 520 2410 509H2427Q2449 519 2474.0 524.5Q2499 530 2526 530Q2576 530 2616 509H2627Q2632 507 2636.0 504.5Q2640 502 2644 499H2630Q2635 496 2640.0 492.5Q2645 489 2649 484H2727Q2733 480 2737 474H2682Q2683 473 2684.0 472.0Q2685 471 2686 469H2700Q2703 465 2706.0 461.5Q2709 458 2711 454H2720L2723 449H2710L2719 434H2720Q2722 429 2725 424H2720Q2725 413 2728 404Q2728 403 2730 399H2729Q2731 395 2731.5 391.5Q2732 388 2733 384H2737Q2739 380 2739.5 376.5Q2740 373 2741 369H2734Q2736 363 2736 359H2715Q2716 355 2716.0 351.5Q2716 348 2717 344H2749Q2750 340 2750.5 334.5Q2751 329 2751 324H2733V309H2714V294H2703V284H2745V274H2748V264H2749V254H2744V249H2738V234H2742V229H2746V219H2757V199H2711V179H2701V159H2742V139H2729V119H2745V109H2744V99H2777V94H2740ZM2404 499H2393Q2393 498 2393.5 496.5Q2394 495 2394 493V492Q2396 494 2399.0 496.0Q2402 498 2404 499ZM2365 484V474H2448L2460 484ZM2393 469V460Q2395 463 2401 469Z M3387 149H3444V129H3391V109H3373V104H3375V99H3344V84H3356V64H3364V59H3237V49H3243V29H3373V27Q3373 18 3366 9H3393Q3389 5 3387 4H3357Q3352 0 3343 0H2873Q2863 0 2858 4H2888Q2886 5 2882 9H2856Q2849 18 2849 27V29H2719V49H2713V59H2840V64H2832V84H2820V99H2851V104H2849V109H2867V129H2920V142Q2920 147 2921 149H2863L2866 159H2837L2840 164H2766Q2767 166 2770 169H2837Q2841 175 2844 177L2852 184H2777L2795 199H2990L3001 209H2934L2939 214H2955L2972 229H2882L2893 239H2885L2891 244H2903L2909 249H2920L2938 264H2944L2967 284H2960L2983 304H2985L3009 324H3007L3019 334H3017L3034 348H2853Q2842 348 2836 354H2828Q2825 356 2823 359H2842Q2840 363 2838 369H2832Q2831 371 2831 374H2813V394H2799V399H2803V404H2816V409H2839V419H2827V429H2831V459H2835V474H2830V479H2828V484H2867V493Q2867 498 2869 504H2817Q2824 520 2842 520H3284Q3300 520 3309 504H3360Q3363 500 3363 493V484H3324V479H3326V474H3331V459H3327V429H3323V419H3335V409H3312V404H3299V399H3295V394H3309V374H3327V369H3333V367Q3333 362 3332 359H3313Q3313 358 3311 354H3319Q3317 347 3308 338L3303 334H3304L3293 324H3295L3272 304H3270L3247 284H3254L3231 264H3225L3208 249H3196L3191 244H3179L3173 239H3181L3170 229H3260L3243 214H3227L3222 209H3289L3278 199H3083L3066 184H3141L3127 172H3325Q3333 172 3337 169H3270Q3273 168 3277 164H3351L3354 159H3383Q3385 155 3387 149Z M3928 274V264H4055V254H3978V244H3942V234H3973V228Q3973 222 3972 219H3986Q3979 201 3960 201H3662V199H3702V196Q3702 192 3702.0 187.5Q3702 183 3703 179H3649Q3649 176 3649.5 173.5Q3650 171 3650 169H3644Q3644 165 3646 159H3650Q3655 145 3666 139H3639Q3646 135 3658 135Q3666 135 3671 139H3718Q3722 141 3725.5 145.0Q3729 149 3734 153L3740 159H3721Q3730 167 3748 167H3937Q3949 167 3955 159H3973Q3978 152 3978 145Q3977 143 3977 139H3930Q3928 129 3924 119H3875Q3872 114 3870 109H3994Q3992 104 3988.5 99.0Q3985 94 3981 89H3951Q3947 83 3943 79H3950Q3949 78 3948.0 77.0Q3947 76 3946 74H3890L3885 69H3902Q3901 68 3899.5 67.0Q3898 66 3897 64H3928Q3921 57 3910 49H3895Q3894 48 3892.0 47.0Q3890 46 3888 44H3877Q3861 33 3842 24H3829Q3817 18 3803.5 13.0Q3790 8 3775 4H3759Q3748 1 3736.0 -1.5Q3724 -4 3710 -6H3752Q3738 -8 3723.0 -9.0Q3708 -10 3691 -10Q3675 -10 3659.0 -9.0Q3643 -8 3628 -6H3586Q3573 -4 3561.0 -1.5Q3549 1 3537 4H3553Q3526 11 3502 24H3515Q3497 34 3484 44H3495Q3493 46 3491.5 47.0Q3490 48 3488 49H3503Q3499 53 3495.0 56.5Q3491 60 3487 64H3455L3450 69H3433Q3432 71 3431.0 72.0Q3430 73 3429 74H3484Q3483 76 3480 79H3473Q3471 81 3469.0 84.0Q3467 87 3465 89H3495Q3492 94 3489.0 99.0Q3486 104 3483 109H3358Q3355 114 3353 119H3402L3393 139H3420Q3418 144 3416.5 149.0Q3415 154 3413 159H3410L3407 169H3414L3411 179H3465Q3464 184 3463.0 189.0Q3462 194 3461 199H3421L3419 219H3405Q3405 223 3404.5 226.5Q3404 230 3404 234H3373V244H3408V254H3485V264H3358V266Q3358 271 3359 274H3532Q3532 278 3532.5 281.5Q3533 285 3533 289H3374Q3374 291 3374.5 292.0Q3375 293 3375 294H3441Q3441 297 3442 299H3516V304H3375Q3376 309 3377.0 314.0Q3378 319 3379 324H3417Q3417 328 3419 334H3386Q3386 336 3386.5 337.0Q3387 338 3387 339H3411Q3411 341 3411.5 342.0Q3412 343 3412 344H3387L3389 349H3413L3416 359H3435L3441 374H3423Q3425 379 3427.0 384.5Q3429 390 3432 394H3429L3431 399H3406Q3408 403 3408 404H3385L3391 414H3440Q3441 416 3444 419H3462Q3466 424 3469.5 429.5Q3473 435 3477 439H3459Q3462 443 3465.5 446.5Q3469 450 3473 454H3512L3522 464H3463Q3476 475 3489 484H3544L3552 489H3534Q3542 494 3553 499H3592Q3619 512 3648 519H3592Q3614 524 3638.0 527.0Q3662 530 3688 530Q3714 530 3737.0 527.0Q3760 524 3781 519H3836Q3851 515 3864.5 510.0Q3878 505 3891 499H3852Q3857 497 3861.5 494.5Q3866 492 3870 489H3888Q3890 488 3892.0 487.0Q3894 486 3896 484H3841Q3854 475 3867 464H3927L3937 454H3898Q3902 450 3905.5 446.5Q3909 443 3912 439H3930Q3934 435 3937.5 429.5Q3941 424 3945 419H3926Q3927 417 3930 414H3880L3886 404H3909L3912 399H3938Q3938 398 3940 394H3943L3952 374L3958 359H3959L3962 349H3950L3952 344H3961L3963 339H3979Q3979 338 3979.5 337.0Q3980 336 3980 334H3972L3975 324H3937L3940 304H4081V299H4007Q4007 298 4007.5 297.0Q4008 296 4008 294H3941Q3942 292 3942 289H4101Q4101 285 4101.0 281.5Q4101 278 4102 274ZM3624 339V334H3656V326H3736V334H3743V339H3727V344H3717Q3717 347 3716 349H3728Q3728 353 3726 359H3725Q3724 368 3719 374Q3709 390 3688 390Q3668 390 3658 374H3676Q3672 368 3670 359H3650Q3650 357 3649.5 354.5Q3649 352 3648 349H3624Q3624 346 3623 344H3648V339Z"/></g></svg>
